# xmcd
#
# Track frame offsets: 
#        150
#        17861
#        33913
#        55268
#        71901
#        87894
#        100735
#        119522
#        137252
#        156067
#        175573
#        188450
#        210594
#        229262
#        246042
#        262819
#
# Disc length: 3719 seconds
#
# Revision: 0
# Processed by: cddbd v1.5.2PL0 Copyright (c) Steve Scherf et al.
# Submitted via: ExactAudioCopyFreeDBPlugin 1.0
#
DISCID=c80e8510
DTITLE=蔡國權 - 蔡國權-金曲精選 Vol 2
DYEAR=1900
DGENRE=中文流行曲
TTITLE0=童年
TTITLE1=寒熬似冰
TTITLE2=无心快语
TTITLE3=是谁在我耳边唱
TTITLE4=順流逆流
TTITLE5=長夜
TTITLE6=风中暖流
TTITLE7=原因
TTITLE8=夢的預言
TTITLE9=听说爱是会精彩
TTITLE10=风中劲草
TTITLE11=天地情
TTITLE12=爱的独白
TTITLE13=歌声背后
TTITLE14=海底针
TTITLE15=爱情傀儡
EXTD=
EXTT0=
EXTT1=
EXTT2=
EXTT3=
EXTT4=
EXTT5=
EXTT6=
EXTT7=
EXTT8=
EXTT9=
EXTT10=
EXTT11=
EXTT12=
EXTT13=
EXTT14=
EXTT15=
PLAYORDER=
